<mxfile host="65bd71144e">
    <diagram id="NQSdOdMcFyKEJ-xxSyxO" name="Page-1">
        <mxGraphModel dx="2848" dy="838" grid="1" gridSize="10" guides="1" tooltips="1" connect="1" arrows="1" fold="1" page="1" pageScale="1" pageWidth="850" pageHeight="1100" math="0" shadow="0">
            <root>
                <mxCell id="0"/>
                <mxCell id="1" parent="0"/>
                <mxCell id="2" value="Festival" style="swimlane;fontStyle=0;childLayout=stackLayout;horizontal=1;startSize=26;horizontalStack=0;resizeParent=1;resizeParentMax=0;resizeLast=0;collapsible=1;marginBottom=0;align=center;fontSize=14;" vertex="1" parent="1">
                    <mxGeometry x="670" y="160" width="160" height="146" as="geometry"/>
                </mxCell>
                <mxCell id="5" value="Numero_festival" style="text;strokeColor=none;fillColor=none;spacingLeft=4;spacingRight=4;overflow=hidden;rotatable=0;points=[[0,0.5],[1,0.5]];portConstraint=eastwest;fontSize=12;fontStyle=4" vertex="1" parent="2">
                    <mxGeometry y="26" width="160" height="30" as="geometry"/>
                </mxCell>
                <mxCell id="6" value="nom_festival&#10;" style="text;strokeColor=none;fillColor=none;spacingLeft=4;spacingRight=4;overflow=hidden;rotatable=0;points=[[0,0.5],[1,0.5]];portConstraint=eastwest;fontSize=12;" vertex="1" parent="2">
                    <mxGeometry y="56" width="160" height="30" as="geometry"/>
                </mxCell>
                <mxCell id="7" value="lieu" style="text;strokeColor=none;fillColor=none;spacingLeft=4;spacingRight=4;overflow=hidden;rotatable=0;points=[[0,0.5],[1,0.5]];portConstraint=eastwest;fontSize=12;" vertex="1" parent="2">
                    <mxGeometry y="86" width="160" height="30" as="geometry"/>
                </mxCell>
                <mxCell id="8" value="date_fin" style="text;strokeColor=none;fillColor=none;spacingLeft=4;spacingRight=4;overflow=hidden;rotatable=0;points=[[0,0.5],[1,0.5]];portConstraint=eastwest;fontSize=12;" vertex="1" parent="2">
                    <mxGeometry y="116" width="160" height="30" as="geometry"/>
                </mxCell>
                <mxCell id="9" value="Artiste" style="swimlane;fontStyle=0;childLayout=stackLayout;horizontal=1;startSize=26;horizontalStack=0;resizeParent=1;resizeParentMax=0;resizeLast=0;collapsible=1;marginBottom=0;align=center;fontSize=14;" vertex="1" parent="1">
                    <mxGeometry x="-480" y="10" width="160" height="146" as="geometry"/>
                </mxCell>
                <mxCell id="10" value="numero_artiste" style="text;strokeColor=none;fillColor=none;spacingLeft=4;spacingRight=4;overflow=hidden;rotatable=0;points=[[0,0.5],[1,0.5]];portConstraint=eastwest;fontSize=12;fontStyle=4" vertex="1" parent="9">
                    <mxGeometry y="26" width="160" height="30" as="geometry"/>
                </mxCell>
                <mxCell id="11" value="nom_artiste" style="text;strokeColor=none;fillColor=none;spacingLeft=4;spacingRight=4;overflow=hidden;rotatable=0;points=[[0,0.5],[1,0.5]];portConstraint=eastwest;fontSize=12;" vertex="1" parent="9">
                    <mxGeometry y="56" width="160" height="30" as="geometry"/>
                </mxCell>
                <mxCell id="12" value="genre_musical" style="text;strokeColor=none;fillColor=none;spacingLeft=4;spacingRight=4;overflow=hidden;rotatable=0;points=[[0,0.5],[1,0.5]];portConstraint=eastwest;fontSize=12;" vertex="1" parent="9">
                    <mxGeometry y="86" width="160" height="30" as="geometry"/>
                </mxCell>
                <mxCell id="13" value="pays_origine" style="text;strokeColor=none;fillColor=none;spacingLeft=4;spacingRight=4;overflow=hidden;rotatable=0;points=[[0,0.5],[1,0.5]];portConstraint=eastwest;fontSize=12;" vertex="1" parent="9">
                    <mxGeometry y="116" width="160" height="30" as="geometry"/>
                </mxCell>
                <mxCell id="14" value="Spectacle" style="swimlane;fontStyle=0;childLayout=stackLayout;horizontal=1;startSize=26;horizontalStack=0;resizeParent=1;resizeParentMax=0;resizeLast=0;collapsible=1;marginBottom=0;align=center;fontSize=14;" vertex="1" parent="1">
                    <mxGeometry x="-80" y="15" width="160" height="116" as="geometry"/>
                </mxCell>
                <mxCell id="15" value="numero_spectacle" style="text;strokeColor=none;fillColor=none;spacingLeft=4;spacingRight=4;overflow=hidden;rotatable=0;points=[[0,0.5],[1,0.5]];portConstraint=eastwest;fontSize=12;fontStyle=4" vertex="1" parent="14">
                    <mxGeometry y="26" width="160" height="30" as="geometry"/>
                </mxCell>
                <mxCell id="16" value="duree" style="text;strokeColor=none;fillColor=none;spacingLeft=4;spacingRight=4;overflow=hidden;rotatable=0;points=[[0,0.5],[1,0.5]];portConstraint=eastwest;fontSize=12;" vertex="1" parent="14">
                    <mxGeometry y="56" width="160" height="30" as="geometry"/>
                </mxCell>
                <mxCell id="17" value="date_heure" style="text;strokeColor=none;fillColor=none;spacingLeft=4;spacingRight=4;overflow=hidden;rotatable=0;points=[[0,0.5],[1,0.5]];portConstraint=eastwest;fontSize=12;" vertex="1" parent="14">
                    <mxGeometry y="86" width="160" height="30" as="geometry"/>
                </mxCell>
                <mxCell id="18" value="scene" style="swimlane;fontStyle=0;childLayout=stackLayout;horizontal=1;startSize=26;horizontalStack=0;resizeParent=1;resizeParentMax=0;resizeLast=0;collapsible=1;marginBottom=0;align=center;fontSize=14;" vertex="1" parent="1">
                    <mxGeometry x="330" y="20" width="160" height="116" as="geometry"/>
                </mxCell>
                <mxCell id="19" value="numero_scene" style="text;strokeColor=none;fillColor=none;spacingLeft=4;spacingRight=4;overflow=hidden;rotatable=0;points=[[0,0.5],[1,0.5]];portConstraint=eastwest;fontSize=12;fontStyle=4" vertex="1" parent="18">
                    <mxGeometry y="26" width="160" height="30" as="geometry"/>
                </mxCell>
                <mxCell id="20" value="nom_scene" style="text;strokeColor=none;fillColor=none;spacingLeft=4;spacingRight=4;overflow=hidden;rotatable=0;points=[[0,0.5],[1,0.5]];portConstraint=eastwest;fontSize=12;" vertex="1" parent="18">
                    <mxGeometry y="56" width="160" height="30" as="geometry"/>
                </mxCell>
                <mxCell id="21" value="capacite" style="text;strokeColor=none;fillColor=none;spacingLeft=4;spacingRight=4;overflow=hidden;rotatable=0;points=[[0,0.5],[1,0.5]];portConstraint=eastwest;fontSize=12;" vertex="1" parent="18">
                    <mxGeometry y="86" width="160" height="30" as="geometry"/>
                </mxCell>
                <mxCell id="22" value="service" style="swimlane;fontStyle=0;childLayout=stackLayout;horizontal=1;startSize=26;horizontalStack=0;resizeParent=1;resizeParentMax=0;resizeLast=0;collapsible=1;marginBottom=0;align=center;fontSize=14;" vertex="1" parent="1">
                    <mxGeometry x="390" y="490" width="160" height="86" as="geometry"/>
                </mxCell>
                <mxCell id="23" value="numero_service" style="text;strokeColor=none;fillColor=none;spacingLeft=4;spacingRight=4;overflow=hidden;rotatable=0;points=[[0,0.5],[1,0.5]];portConstraint=eastwest;fontSize=12;fontStyle=4" vertex="1" parent="22">
                    <mxGeometry y="26" width="160" height="30" as="geometry"/>
                </mxCell>
                <mxCell id="24" value="nom_service" style="text;strokeColor=none;fillColor=none;spacingLeft=4;spacingRight=4;overflow=hidden;rotatable=0;points=[[0,0.5],[1,0.5]];portConstraint=eastwest;fontSize=12;" vertex="1" parent="22">
                    <mxGeometry y="56" width="160" height="30" as="geometry"/>
                </mxCell>
                <mxCell id="26" value="billet" style="swimlane;fontStyle=0;childLayout=stackLayout;horizontal=1;startSize=26;horizontalStack=0;resizeParent=1;resizeParentMax=0;resizeLast=0;collapsible=1;marginBottom=0;align=center;fontSize=14;" vertex="1" parent="1">
                    <mxGeometry x="-80" y="310" width="160" height="116" as="geometry"/>
                </mxCell>
                <mxCell id="27" value="numero_billet" style="text;strokeColor=none;fillColor=none;spacingLeft=4;spacingRight=4;overflow=hidden;rotatable=0;points=[[0,0.5],[1,0.5]];portConstraint=eastwest;fontSize=12;fontStyle=4" vertex="1" parent="26">
                    <mxGeometry y="26" width="160" height="30" as="geometry"/>
                </mxCell>
                <mxCell id="28" value="type" style="text;strokeColor=none;fillColor=none;spacingLeft=4;spacingRight=4;overflow=hidden;rotatable=0;points=[[0,0.5],[1,0.5]];portConstraint=eastwest;fontSize=12;" vertex="1" parent="26">
                    <mxGeometry y="56" width="160" height="30" as="geometry"/>
                </mxCell>
                <mxCell id="29" value="prix" style="text;strokeColor=none;fillColor=none;spacingLeft=4;spacingRight=4;overflow=hidden;rotatable=0;points=[[0,0.5],[1,0.5]];portConstraint=eastwest;fontSize=12;" vertex="1" parent="26">
                    <mxGeometry y="86" width="160" height="30" as="geometry"/>
                </mxCell>
                <mxCell id="30" value="visiteur" style="swimlane;fontStyle=0;childLayout=stackLayout;horizontal=1;startSize=26;horizontalStack=0;resizeParent=1;resizeParentMax=0;resizeLast=0;collapsible=1;marginBottom=0;align=center;fontSize=14;" vertex="1" parent="1">
                    <mxGeometry x="-80" y="570" width="160" height="146" as="geometry"/>
                </mxCell>
                <mxCell id="31" value="numero_visiteur" style="text;strokeColor=none;fillColor=none;spacingLeft=4;spacingRight=4;overflow=hidden;rotatable=0;points=[[0,0.5],[1,0.5]];portConstraint=eastwest;fontSize=12;fontStyle=4" vertex="1" parent="30">
                    <mxGeometry y="26" width="160" height="30" as="geometry"/>
                </mxCell>
                <mxCell id="32" value="nom_visiteur" style="text;strokeColor=none;fillColor=none;spacingLeft=4;spacingRight=4;overflow=hidden;rotatable=0;points=[[0,0.5],[1,0.5]];portConstraint=eastwest;fontSize=12;" vertex="1" parent="30">
                    <mxGeometry y="56" width="160" height="30" as="geometry"/>
                </mxCell>
                <mxCell id="33" value="prenom_visiteur" style="text;strokeColor=none;fillColor=none;spacingLeft=4;spacingRight=4;overflow=hidden;rotatable=0;points=[[0,0.5],[1,0.5]];portConstraint=eastwest;fontSize=12;" vertex="1" parent="30">
                    <mxGeometry y="86" width="160" height="30" as="geometry"/>
                </mxCell>
                <mxCell id="34" value="email_visiteur" style="text;strokeColor=none;fillColor=none;spacingLeft=4;spacingRight=4;overflow=hidden;rotatable=0;points=[[0,0.5],[1,0.5]];portConstraint=eastwest;fontSize=12;" vertex="1" parent="30">
                    <mxGeometry y="116" width="160" height="30" as="geometry"/>
                </mxCell>
                <mxCell id="35" value="personnel" style="swimlane;fontStyle=0;childLayout=stackLayout;horizontal=1;startSize=26;horizontalStack=0;resizeParent=1;resizeParentMax=0;resizeLast=0;collapsible=1;marginBottom=0;align=center;fontSize=14;" vertex="1" parent="1">
                    <mxGeometry x="220" y="260" width="160" height="146" as="geometry"/>
                </mxCell>
                <mxCell id="36" value="numero_personnel" style="text;strokeColor=none;fillColor=none;spacingLeft=4;spacingRight=4;overflow=hidden;rotatable=0;points=[[0,0.5],[1,0.5]];portConstraint=eastwest;fontSize=12;fontStyle=4" vertex="1" parent="35">
                    <mxGeometry y="26" width="160" height="30" as="geometry"/>
                </mxCell>
                <mxCell id="37" value="nom_personnel" style="text;strokeColor=none;fillColor=none;spacingLeft=4;spacingRight=4;overflow=hidden;rotatable=0;points=[[0,0.5],[1,0.5]];portConstraint=eastwest;fontSize=12;" vertex="1" parent="35">
                    <mxGeometry y="56" width="160" height="30" as="geometry"/>
                </mxCell>
                <mxCell id="38" value="prenom_personnel" style="text;strokeColor=none;fillColor=none;spacingLeft=4;spacingRight=4;overflow=hidden;rotatable=0;points=[[0,0.5],[1,0.5]];portConstraint=eastwest;fontSize=12;" vertex="1" parent="35">
                    <mxGeometry y="86" width="160" height="30" as="geometry"/>
                </mxCell>
                <mxCell id="39" value="email_visiteur" style="text;strokeColor=none;fillColor=none;spacingLeft=4;spacingRight=4;overflow=hidden;rotatable=0;points=[[0,0.5],[1,0.5]];portConstraint=eastwest;fontSize=12;" vertex="1" parent="35">
                    <mxGeometry y="116" width="160" height="30" as="geometry"/>
                </mxCell>
                <mxCell id="43" value="localiser" style="ellipse;whiteSpace=wrap;html=1;align=center;" vertex="1" parent="1">
                    <mxGeometry x="560" y="80" width="100" height="40" as="geometry"/>
                </mxCell>
                <mxCell id="44" value="" style="endArrow=none;html=1;entryX=0;entryY=0.5;entryDx=0;entryDy=0;exitX=1;exitY=0.5;exitDx=0;exitDy=0;" edge="1" parent="1" source="20" target="43">
                    <mxGeometry width="50" height="50" relative="1" as="geometry">
                        <mxPoint x="410" y="190" as="sourcePoint"/>
                        <mxPoint x="460" y="140" as="targetPoint"/>
                    </mxGeometry>
                </mxCell>
                <mxCell id="45" value="" style="endArrow=none;html=1;exitX=0.5;exitY=0;exitDx=0;exitDy=0;entryX=1;entryY=0.5;entryDx=0;entryDy=0;" edge="1" parent="1" source="2" target="43">
                    <mxGeometry width="50" height="50" relative="1" as="geometry">
                        <mxPoint x="410" y="190" as="sourcePoint"/>
                        <mxPoint x="460" y="140" as="targetPoint"/>
                    </mxGeometry>
                </mxCell>
                <mxCell id="46" value="1,n" style="text;html=1;align=center;verticalAlign=middle;resizable=0;points=[];autosize=1;strokeColor=none;fillColor=none;" vertex="1" parent="1">
                    <mxGeometry x="740" y="130" width="40" height="30" as="geometry"/>
                </mxCell>
                <mxCell id="47" value="1,1" style="text;html=1;align=center;verticalAlign=middle;resizable=0;points=[];autosize=1;strokeColor=none;fillColor=none;" vertex="1" parent="1">
                    <mxGeometry x="490" y="63" width="40" height="30" as="geometry"/>
                </mxCell>
                <mxCell id="49" value="se déroule" style="ellipse;whiteSpace=wrap;html=1;align=center;" vertex="1" parent="1">
                    <mxGeometry x="160" y="53" width="100" height="40" as="geometry"/>
                </mxCell>
                <mxCell id="50" value="" style="endArrow=none;html=1;exitX=1;exitY=0.5;exitDx=0;exitDy=0;entryX=0;entryY=0.5;entryDx=0;entryDy=0;" edge="1" parent="1" source="16" target="49">
                    <mxGeometry width="50" height="50" relative="1" as="geometry">
                        <mxPoint x="410" y="190" as="sourcePoint"/>
                        <mxPoint x="460" y="140" as="targetPoint"/>
                    </mxGeometry>
                </mxCell>
                <mxCell id="51" value="" style="endArrow=none;html=1;exitX=1;exitY=0.5;exitDx=0;exitDy=0;" edge="1" parent="1" source="49">
                    <mxGeometry width="50" height="50" relative="1" as="geometry">
                        <mxPoint x="410" y="190" as="sourcePoint"/>
                        <mxPoint x="330" y="80" as="targetPoint"/>
                    </mxGeometry>
                </mxCell>
                <mxCell id="52" value="1,1" style="text;html=1;align=center;verticalAlign=middle;resizable=0;points=[];autosize=1;strokeColor=none;fillColor=none;" vertex="1" parent="1">
                    <mxGeometry x="85" y="50" width="40" height="30" as="geometry"/>
                </mxCell>
                <mxCell id="53" value="1,n" style="text;html=1;align=center;verticalAlign=middle;resizable=0;points=[];autosize=1;strokeColor=none;fillColor=none;" vertex="1" parent="1">
                    <mxGeometry x="290" y="45" width="40" height="30" as="geometry"/>
                </mxCell>
                <mxCell id="54" value="performe" style="ellipse;whiteSpace=wrap;html=1;align=center;" vertex="1" parent="1">
                    <mxGeometry x="-250" y="50" width="100" height="40" as="geometry"/>
                </mxCell>
                <mxCell id="55" value="" style="endArrow=none;html=1;exitX=1;exitY=0.5;exitDx=0;exitDy=0;entryX=0;entryY=0.5;entryDx=0;entryDy=0;" edge="1" parent="1" source="11" target="54">
                    <mxGeometry width="50" height="50" relative="1" as="geometry">
                        <mxPoint x="-100" y="70" as="sourcePoint"/>
                        <mxPoint x="-50" y="20" as="targetPoint"/>
                    </mxGeometry>
                </mxCell>
                <mxCell id="56" value="" style="endArrow=none;html=1;exitX=1;exitY=0.5;exitDx=0;exitDy=0;entryX=0;entryY=0.5;entryDx=0;entryDy=0;" edge="1" parent="1" source="54" target="15">
                    <mxGeometry width="50" height="50" relative="1" as="geometry">
                        <mxPoint x="-100" y="70" as="sourcePoint"/>
                        <mxPoint x="-50" y="20" as="targetPoint"/>
                    </mxGeometry>
                </mxCell>
                <mxCell id="57" value="1,n" style="text;html=1;align=center;verticalAlign=middle;resizable=0;points=[];autosize=1;strokeColor=none;fillColor=none;" vertex="1" parent="1">
                    <mxGeometry x="-330" y="45" width="40" height="30" as="geometry"/>
                </mxCell>
                <mxCell id="58" value="1,n" style="text;html=1;align=center;verticalAlign=middle;resizable=0;points=[];autosize=1;strokeColor=none;fillColor=none;" vertex="1" parent="1">
                    <mxGeometry x="-130" y="25" width="40" height="30" as="geometry"/>
                </mxCell>
                <mxCell id="59" value="possède" style="ellipse;whiteSpace=wrap;html=1;align=center;" vertex="1" parent="1">
                    <mxGeometry x="-50" y="210" width="100" height="40" as="geometry"/>
                </mxCell>
                <mxCell id="60" value="" style="endArrow=none;html=1;entryX=0.503;entryY=1.217;entryDx=0;entryDy=0;entryPerimeter=0;exitX=0.5;exitY=0;exitDx=0;exitDy=0;" edge="1" parent="1" source="59" target="17">
                    <mxGeometry width="50" height="50" relative="1" as="geometry">
                        <mxPoint x="-410" y="300" as="sourcePoint"/>
                        <mxPoint x="-360" y="250" as="targetPoint"/>
                    </mxGeometry>
                </mxCell>
                <mxCell id="61" value="" style="endArrow=none;html=1;entryX=0.5;entryY=1;entryDx=0;entryDy=0;exitX=0.5;exitY=0;exitDx=0;exitDy=0;" edge="1" parent="1" source="26" target="59">
                    <mxGeometry width="50" height="50" relative="1" as="geometry">
                        <mxPoint x="-410" y="300" as="sourcePoint"/>
                        <mxPoint x="-360" y="250" as="targetPoint"/>
                    </mxGeometry>
                </mxCell>
                <mxCell id="62" value="1,n" style="text;html=1;align=center;verticalAlign=middle;resizable=0;points=[];autosize=1;strokeColor=none;fillColor=none;" vertex="1" parent="1">
                    <mxGeometry x="5" y="140" width="40" height="30" as="geometry"/>
                </mxCell>
                <mxCell id="63" value="1,1" style="text;html=1;align=center;verticalAlign=middle;resizable=0;points=[];autosize=1;strokeColor=none;fillColor=none;" vertex="1" parent="1">
                    <mxGeometry x="5" y="276" width="40" height="30" as="geometry"/>
                </mxCell>
                <mxCell id="64" value="achète" style="ellipse;whiteSpace=wrap;html=1;align=center;" vertex="1" parent="1">
                    <mxGeometry x="-50" y="480" width="100" height="40" as="geometry"/>
                </mxCell>
                <mxCell id="65" value="" style="endArrow=none;html=1;exitX=0.5;exitY=0;exitDx=0;exitDy=0;" edge="1" parent="1" source="64">
                    <mxGeometry width="50" height="50" relative="1" as="geometry">
                        <mxPoint x="-290" y="530" as="sourcePoint"/>
                        <mxPoint y="430" as="targetPoint"/>
                    </mxGeometry>
                </mxCell>
                <mxCell id="66" value="" style="endArrow=none;html=1;entryX=0.5;entryY=1;entryDx=0;entryDy=0;exitX=0.5;exitY=0;exitDx=0;exitDy=0;" edge="1" parent="1" source="30" target="64">
                    <mxGeometry width="50" height="50" relative="1" as="geometry">
                        <mxPoint x="-290" y="530" as="sourcePoint"/>
                        <mxPoint x="-240" y="480" as="targetPoint"/>
                    </mxGeometry>
                </mxCell>
                <mxCell id="67" value="1,1" style="text;html=1;align=center;verticalAlign=middle;resizable=0;points=[];autosize=1;strokeColor=none;fillColor=none;" vertex="1" parent="1">
                    <mxGeometry y="426" width="40" height="30" as="geometry"/>
                </mxCell>
                <mxCell id="68" value="1,n" style="text;html=1;align=center;verticalAlign=middle;resizable=0;points=[];autosize=1;strokeColor=none;fillColor=none;" vertex="1" parent="1">
                    <mxGeometry x="-10" y="545" width="40" height="30" as="geometry"/>
                </mxCell>
                <mxCell id="70" value="offre" style="ellipse;whiteSpace=wrap;html=1;align=center;" vertex="1" parent="1">
                    <mxGeometry x="610" y="380" width="100" height="40" as="geometry"/>
                </mxCell>
                <mxCell id="71" value="" style="endArrow=none;html=1;entryX=0.534;entryY=1.057;entryDx=0;entryDy=0;entryPerimeter=0;exitX=1;exitY=0;exitDx=0;exitDy=0;" edge="1" parent="1" source="70" target="8">
                    <mxGeometry width="50" height="50" relative="1" as="geometry">
                        <mxPoint x="-100" y="500" as="sourcePoint"/>
                        <mxPoint x="-50" y="450" as="targetPoint"/>
                    </mxGeometry>
                </mxCell>
                <mxCell id="72" value="" style="endArrow=none;html=1;entryX=0;entryY=1;entryDx=0;entryDy=0;exitX=1;exitY=0;exitDx=0;exitDy=0;" edge="1" parent="1" source="22" target="70">
                    <mxGeometry width="50" height="50" relative="1" as="geometry">
                        <mxPoint x="-100" y="500" as="sourcePoint"/>
                        <mxPoint x="-50" y="450" as="targetPoint"/>
                    </mxGeometry>
                </mxCell>
                <mxCell id="73" value="1,n" style="text;html=1;align=center;verticalAlign=middle;resizable=0;points=[];autosize=1;strokeColor=none;fillColor=none;" vertex="1" parent="1">
                    <mxGeometry x="685" y="310" width="40" height="30" as="geometry"/>
                </mxCell>
                <mxCell id="74" value="1,n" style="text;html=1;align=center;verticalAlign=middle;resizable=0;points=[];autosize=1;strokeColor=none;fillColor=none;" vertex="1" parent="1">
                    <mxGeometry x="540" y="485" width="40" height="30" as="geometry"/>
                </mxCell>
                <mxCell id="75" value="utilise" style="ellipse;whiteSpace=wrap;html=1;align=center;" vertex="1" parent="1">
                    <mxGeometry x="210" y="623" width="100" height="40" as="geometry"/>
                </mxCell>
                <mxCell id="76" value="" style="endArrow=none;html=1;entryX=0.592;entryY=1.026;entryDx=0;entryDy=0;entryPerimeter=0;exitX=1;exitY=0.5;exitDx=0;exitDy=0;" edge="1" parent="1" source="75" target="24">
                    <mxGeometry width="50" height="50" relative="1" as="geometry">
                        <mxPoint x="-100" y="500" as="sourcePoint"/>
                        <mxPoint x="-50" y="450" as="targetPoint"/>
                    </mxGeometry>
                </mxCell>
                <mxCell id="77" value="" style="endArrow=none;html=1;entryX=0;entryY=0.5;entryDx=0;entryDy=0;exitX=1;exitY=0.5;exitDx=0;exitDy=0;" edge="1" parent="1" source="32" target="75">
                    <mxGeometry width="50" height="50" relative="1" as="geometry">
                        <mxPoint x="-100" y="500" as="sourcePoint"/>
                        <mxPoint x="-50" y="450" as="targetPoint"/>
                    </mxGeometry>
                </mxCell>
                <mxCell id="78" value="1,n" style="text;html=1;align=center;verticalAlign=middle;resizable=0;points=[];autosize=1;strokeColor=none;fillColor=none;" vertex="1" parent="1">
                    <mxGeometry x="450" y="585" width="40" height="30" as="geometry"/>
                </mxCell>
                <mxCell id="79" value="1,n" style="text;html=1;align=center;verticalAlign=middle;resizable=0;points=[];autosize=1;strokeColor=none;fillColor=none;" vertex="1" parent="1">
                    <mxGeometry x="80" y="595" width="40" height="30" as="geometry"/>
                </mxCell>
                <mxCell id="80" value="assigne" style="ellipse;whiteSpace=wrap;html=1;align=center;" vertex="1" parent="1">
                    <mxGeometry x="320" y="180" width="100" height="40" as="geometry"/>
                </mxCell>
                <mxCell id="81" value="" style="endArrow=none;html=1;exitX=0.5;exitY=0;exitDx=0;exitDy=0;" edge="1" parent="1" source="80" target="21">
                    <mxGeometry width="50" height="50" relative="1" as="geometry">
                        <mxPoint x="-100" y="500" as="sourcePoint"/>
                        <mxPoint x="-50" y="450" as="targetPoint"/>
                    </mxGeometry>
                </mxCell>
                <mxCell id="82" value="" style="endArrow=none;html=1;entryX=0.5;entryY=1;entryDx=0;entryDy=0;" edge="1" parent="1" target="80">
                    <mxGeometry width="50" height="50" relative="1" as="geometry">
                        <mxPoint x="300" y="260" as="sourcePoint"/>
                        <mxPoint x="-50" y="450" as="targetPoint"/>
                    </mxGeometry>
                </mxCell>
                <mxCell id="84" value="1,n" style="text;html=1;align=center;verticalAlign=middle;resizable=0;points=[];autosize=1;strokeColor=none;fillColor=none;" vertex="1" parent="1">
                    <mxGeometry x="400" y="135" width="40" height="30" as="geometry"/>
                </mxCell>
                <mxCell id="85" value="1,n" style="text;html=1;align=center;verticalAlign=middle;resizable=0;points=[];autosize=1;strokeColor=none;fillColor=none;" vertex="1" parent="1">
                    <mxGeometry x="270" y="220" width="40" height="30" as="geometry"/>
                </mxCell>
            </root>
        </mxGraphModel>
    </diagram>
</mxfile>